<svg width="33" height="31" viewBox="0 0 33 31" fill="none" xmlns="http://www.w3.org/2000/svg">
<g id="Logo/Symbol">
<path id="Subtract" fill-rule="evenodd" clip-rule="evenodd" d="M2.50488 8.5129C0.36439 9.47588 -0.58835 11.9877 0.376877 14.1232L3.28606 20.5596L4.10125 19.5803C4.63032 20.0026 5.1972 20.3495 5.80186 20.6209C6.42164 20.8773 7.00362 21.0055 7.54782 21.0055C8.13737 21.0055 8.56063 20.915 8.81761 20.734C9.08971 20.5531 9.22576 20.2967 9.22576 19.9649C9.22576 19.7839 9.18041 19.6331 9.08971 19.5124C8.99901 19.3918 8.86296 19.2787 8.68156 19.1731C8.51528 19.0675 8.31121 18.9695 8.06934 18.879C7.82748 18.7735 7.54782 18.6603 7.23037 18.5397L5.39371 17.7706C5.00068 17.6197 4.62277 17.4237 4.25997 17.1824C3.89717 16.926 3.57972 16.6319 3.30763 16.3001C3.03553 15.9533 2.81634 15.5611 2.65006 15.1238C2.49889 14.6864 2.42331 14.2038 2.42331 13.676C2.42331 13.0426 2.55936 12.4544 2.83145 11.9115C3.10355 11.3535 3.48147 10.8709 3.9652 10.4637C4.44893 10.0414 5.02336 9.70959 5.68848 9.46829C6.36873 9.22699 7.10944 9.10634 7.91062 9.10634C8.75714 9.10634 9.61123 9.2647 10.4729 9.5814C11.3496 9.89811 12.1281 10.3958 12.8084 11.0745L10.8583 13.5176C10.3595 13.1708 9.87577 12.9068 9.40716 12.7259C8.95366 12.5449 8.45481 12.4544 7.91062 12.4544C7.42689 12.4544 7.04897 12.5373 6.77688 12.7032C6.50478 12.8691 6.36873 13.118 6.36873 13.4498C6.36873 13.7966 6.55769 14.0681 6.9356 14.2641C7.32863 14.4451 7.86527 14.6638 8.54551 14.9202L10.3368 15.6215C11.2589 15.9834 11.9694 16.4886 12.4683 17.1371C12.9671 17.7856 13.2165 18.6226 13.2165 19.6482C13.2165 20.2665 13.088 20.8622 12.8311 21.4353C12.5741 22.0084 12.1962 22.5136 11.6973 22.951C11.2136 23.3733 10.6165 23.7126 9.906 23.969C9.19553 24.2254 8.37923 24.3535 7.45712 24.3535C6.60105 24.3535 5.71975 24.2151 4.81323 23.9383L6.7851 28.301C7.75033 30.4365 10.268 31.387 12.4085 30.424L26.5053 24.0821H25.0177L23.884 18.2456C23.763 17.6725 23.6572 17.0919 23.5665 16.5037C23.4909 15.9156 23.4154 15.35 23.3398 14.8071H23.2491C23.1735 15.35 23.0904 15.9156 22.9997 16.5037C22.9241 17.0919 22.8258 17.6725 22.7049 18.2456L21.6165 24.0821H16.7641L14.1791 9.3778H18.1699L18.9862 15.8024C19.0618 16.5716 19.1449 17.3407 19.2356 18.1099C19.3263 18.879 19.4095 19.6482 19.4851 20.4173H19.5758L19.9839 18.1099L20.3921 15.8024L21.7979 9.3778H25.0631L26.4689 15.8024C26.605 16.5414 26.741 17.303 26.8771 18.0873C27.0131 18.8564 27.1492 19.6331 27.2852 20.4173H27.3759C27.4515 19.6331 27.5346 18.8564 27.6253 18.0873C27.716 17.3181 27.7992 16.5565 27.8747 15.8024L28.691 9.3778H29.324L26.2149 2.49904C25.2497 0.363541 22.732 -0.586978 20.5915 0.375998L2.50488 8.5129ZM31.5789 14.3665L30.2407 22.4016L30.4951 22.2871C32.6356 21.3241 33.5884 18.8123 32.6231 16.6768L31.5789 14.3665Z" fill="#003DFF"/>
</g>
</svg>
