<svg width="186" height="35" viewBox="0 0 186 35" fill="none" xmlns="http://www.w3.org/2000/svg">
<g id="Property 1=Large">
<g id="Spencer&#38;Williams">
<path d="M35.626 16.36C34.954 16.36 34.246 16.288 33.502 16.144C32.77 16 32.122 15.76 31.558 15.424L31.666 12.688H33.574L33.934 14.956C34.474 15.136 35.044 15.226 35.644 15.226C36.208 15.226 36.622 15.076 36.886 14.776C37.15 14.464 37.282 14.104 37.282 13.696C37.282 13.264 37.18 12.928 36.976 12.688C36.784 12.448 36.46 12.22 36.004 12.004L35.212 11.626C34.096 11.098 33.244 10.522 32.656 9.898C32.068 9.274 31.774 8.452 31.774 7.432C31.774 6.328 32.182 5.464 32.998 4.84C33.826 4.216 34.966 3.904 36.418 3.904C37.078 3.904 37.726 3.982 38.362 4.138C38.998 4.294 39.544 4.516 40 4.804L39.838 7.396H37.966L37.642 5.254C37.282 5.11 36.91 5.038 36.526 5.038C36.082 5.038 35.698 5.182 35.374 5.47C35.062 5.746 34.906 6.094 34.906 6.514C34.906 6.958 35.032 7.306 35.284 7.558C35.536 7.81 35.902 8.056 36.382 8.296L37.282 8.728C38.038 9.088 38.65 9.454 39.118 9.826C39.598 10.186 39.946 10.594 40.162 11.05C40.39 11.494 40.504 12.028 40.504 12.652C40.504 13.36 40.324 13.996 39.964 14.56C39.616 15.112 39.082 15.55 38.362 15.874C37.642 16.198 36.73 16.36 35.626 16.36Z" fill="#23263B"/>
<path d="M41.2594 19.996V19.06L42.0694 18.88C42.0814 18.28 42.0874 17.728 42.0874 17.224C42.0994 16.732 42.1054 16.276 42.1054 15.856V11.104C42.1054 10.768 42.0994 10.498 42.0874 10.294C42.0874 10.09 42.0814 9.898 42.0694 9.718C42.0694 9.538 42.0634 9.328 42.0514 9.088L41.0794 8.926V8.188L45.0214 6.946L45.3274 7.108L45.3994 8.062C46.1314 7.318 47.0074 6.946 48.0274 6.946C48.6874 6.946 49.2874 7.12 49.8274 7.468C50.3674 7.804 50.7934 8.314 51.1054 8.998C51.4294 9.682 51.5914 10.54 51.5914 11.572C51.5914 12.556 51.4054 13.402 51.0334 14.11C50.6614 14.806 50.1754 15.346 49.5754 15.73C48.9874 16.102 48.3574 16.288 47.6854 16.288C47.2054 16.288 46.7854 16.21 46.4254 16.054C46.0654 15.91 45.7474 15.7 45.4714 15.424V15.856C45.4714 16.264 45.4714 16.708 45.4714 17.188C45.4834 17.68 45.4954 18.214 45.5074 18.79L46.4614 19.06V19.996H41.2594ZM46.3714 8.728C46.2154 8.728 46.0654 8.752 45.9214 8.8C45.7894 8.848 45.6574 8.914 45.5254 8.998V14.308C45.7654 14.476 46.0474 14.56 46.3714 14.56C46.8514 14.56 47.2354 14.32 47.5234 13.84C47.8114 13.348 47.9554 12.592 47.9554 11.572C47.9554 10.54 47.8114 9.808 47.5234 9.376C47.2354 8.944 46.8514 8.728 46.3714 8.728Z" fill="#23263B"/>
<path d="M57.186 7.918C56.91 7.918 56.676 8.122 56.484 8.53C56.292 8.938 56.184 9.7 56.16 10.816H57.006C57.438 10.816 57.726 10.732 57.87 10.564C58.026 10.384 58.104 10.066 58.104 9.61C58.104 8.986 58.008 8.548 57.816 8.296C57.636 8.044 57.426 7.918 57.186 7.918ZM57.24 16.288C56.34 16.288 55.536 16.102 54.828 15.73C54.132 15.358 53.58 14.824 53.172 14.128C52.764 13.42 52.56 12.574 52.56 11.59C52.56 10.81 52.698 10.132 52.974 9.556C53.25 8.98 53.622 8.5 54.09 8.116C54.558 7.72 55.08 7.426 55.656 7.234C56.232 7.042 56.814 6.946 57.402 6.946C58.266 6.946 58.98 7.126 59.544 7.486C60.12 7.834 60.552 8.308 60.84 8.908C61.128 9.496 61.272 10.156 61.272 10.888C61.272 11.08 61.266 11.248 61.254 11.392C61.242 11.524 61.218 11.674 61.182 11.842H56.178C56.274 12.718 56.532 13.354 56.952 13.75C57.384 14.146 57.864 14.344 58.392 14.344C58.848 14.344 59.238 14.266 59.562 14.11C59.898 13.942 60.192 13.738 60.444 13.498L61.146 14.182C60.762 14.914 60.234 15.448 59.562 15.784C58.902 16.12 58.128 16.288 57.24 16.288Z" fill="#23263B"/>
<path d="M62.0527 16V15.082L62.8807 14.884C62.8927 14.452 62.8987 13.996 62.8987 13.516C62.8987 13.024 62.8987 12.592 62.8987 12.22V11.104C62.8987 10.768 62.8927 10.498 62.8807 10.294C62.8807 10.09 62.8747 9.898 62.8627 9.718C62.8627 9.538 62.8567 9.328 62.8447 9.088L61.8727 8.926V8.188L65.8507 6.946L66.1747 7.144L66.2647 8.386C66.7567 7.81 67.2067 7.426 67.6147 7.234C68.0347 7.042 68.4967 6.946 69.0007 6.946C69.7807 6.946 70.4287 7.204 70.9447 7.72C71.4607 8.224 71.7187 8.968 71.7187 9.952V12.22C71.7187 12.604 71.7187 13.042 71.7187 13.534C71.7187 14.026 71.7247 14.488 71.7367 14.92L72.4927 15.082V16H67.5067V15.082L68.2807 14.902C68.2927 14.47 68.2987 14.008 68.2987 13.516C68.2987 13.024 68.2987 12.592 68.2987 12.22V10.186C68.2987 9.706 68.2327 9.37 68.1007 9.178C67.9807 8.974 67.7767 8.872 67.4887 8.872C67.1527 8.872 66.7627 9.028 66.3187 9.34V12.22C66.3187 12.592 66.3187 13.03 66.3187 13.534C66.3187 14.026 66.3247 14.494 66.3367 14.938L67.0207 15.082V16H62.0527Z" fill="#23263B"/>
<path d="M77.8588 16.288C77.0428 16.288 76.2808 16.12 75.5728 15.784C74.8648 15.436 74.2888 14.92 73.8448 14.236C73.4128 13.552 73.1968 12.688 73.1968 11.644C73.1968 10.648 73.4248 9.802 73.8808 9.106C74.3368 8.398 74.9548 7.864 75.7348 7.504C76.5148 7.132 77.3848 6.946 78.3448 6.946C79.0168 6.946 79.6048 7.072 80.1088 7.324C80.6128 7.576 81.0088 7.912 81.2968 8.332C81.5968 8.74 81.7588 9.19 81.7828 9.682C81.5548 10.378 81.0988 10.726 80.4148 10.726C80.0428 10.726 79.7008 10.582 79.3888 10.294C79.0768 10.006 78.9028 9.466 78.8668 8.674L78.8308 7.918H78.7588C78.4828 7.918 78.1888 8.026 77.8768 8.242C77.5768 8.446 77.3188 8.794 77.1028 9.286C76.8988 9.766 76.7968 10.42 76.7968 11.248C76.7968 12.244 77.0068 13.012 77.4268 13.552C77.8588 14.08 78.4348 14.344 79.1548 14.344C79.5508 14.344 79.8928 14.266 80.1808 14.11C80.4688 13.942 80.7388 13.738 80.9908 13.498L81.6928 14.182C81.3088 14.914 80.7868 15.448 80.1268 15.784C79.4668 16.12 78.7108 16.288 77.8588 16.288Z" fill="#23263B"/>
<path d="M87.0689 7.918C86.7929 7.918 86.5589 8.122 86.3669 8.53C86.1749 8.938 86.0669 9.7 86.0429 10.816H86.8889C87.3209 10.816 87.6089 10.732 87.7529 10.564C87.9089 10.384 87.9869 10.066 87.9869 9.61C87.9869 8.986 87.8909 8.548 87.6989 8.296C87.5189 8.044 87.3089 7.918 87.0689 7.918ZM87.1229 16.288C86.2229 16.288 85.4189 16.102 84.7109 15.73C84.0149 15.358 83.4629 14.824 83.0549 14.128C82.6469 13.42 82.4429 12.574 82.4429 11.59C82.4429 10.81 82.5809 10.132 82.8569 9.556C83.1329 8.98 83.5049 8.5 83.9729 8.116C84.4409 7.72 84.9629 7.426 85.5389 7.234C86.1149 7.042 86.6969 6.946 87.2849 6.946C88.1489 6.946 88.8629 7.126 89.4269 7.486C90.0029 7.834 90.4349 8.308 90.7229 8.908C91.0109 9.496 91.1549 10.156 91.1549 10.888C91.1549 11.08 91.1489 11.248 91.1369 11.392C91.1249 11.524 91.1009 11.674 91.0649 11.842H86.0609C86.1569 12.718 86.4149 13.354 86.8349 13.75C87.2669 14.146 87.7469 14.344 88.2749 14.344C88.7309 14.344 89.1209 14.266 89.4449 14.11C89.7809 13.942 90.0749 13.738 90.3269 13.498L91.0289 14.182C90.6449 14.914 90.1169 15.448 89.4449 15.784C88.7849 16.12 88.0109 16.288 87.1229 16.288Z" fill="#23263B"/>
<path d="M91.8995 16V15.082L92.7635 14.884C92.7755 14.452 92.7815 13.996 92.7815 13.516C92.7815 13.024 92.7815 12.592 92.7815 12.22V11.086C92.7815 10.75 92.7755 10.48 92.7635 10.276C92.7635 10.072 92.7575 9.886 92.7455 9.718C92.7455 9.538 92.7395 9.328 92.7275 9.088L91.7555 8.926V8.188L95.7335 6.946L96.0575 7.144L96.2015 9.232C96.4415 8.452 96.7835 7.876 97.2275 7.504C97.6835 7.132 98.1275 6.946 98.5595 6.946C99.0035 6.946 99.3755 7.078 99.6755 7.342C99.9875 7.594 100.173 7.996 100.233 8.548C100.209 9.028 100.065 9.406 99.8015 9.682C99.5375 9.946 99.2255 10.078 98.8655 10.078C98.3135 10.078 97.8095 9.748 97.3535 9.088L97.2635 8.962C97.0475 9.202 96.8315 9.514 96.6155 9.898C96.4115 10.282 96.2735 10.678 96.2015 11.086V12.22C96.2015 12.568 96.2015 12.976 96.2015 13.444C96.2015 13.912 96.2075 14.356 96.2195 14.776L97.6235 15.082V16H91.8995Z" fill="#23263B"/>
<path d="M104.051 7.774C104.111 7.87 104.189 7.978 104.285 8.098C104.381 8.206 104.507 8.362 104.663 8.566C105.023 8.074 105.263 7.606 105.383 7.162C105.503 6.718 105.563 6.34 105.563 6.028C105.563 5.668 105.473 5.38 105.293 5.164C105.125 4.948 104.867 4.84 104.519 4.84C104.195 4.84 103.937 4.96 103.745 5.2C103.565 5.428 103.475 5.722 103.475 6.082C103.475 6.31 103.517 6.562 103.601 6.838C103.685 7.114 103.835 7.426 104.051 7.774ZM111.413 16C110.933 16.108 110.561 16.18 110.297 16.216C110.033 16.264 109.763 16.288 109.487 16.288C108.935 16.288 108.431 16.216 107.975 16.072C107.531 15.928 107.081 15.67 106.625 15.298C106.577 15.262 106.529 15.226 106.481 15.19C106.445 15.142 106.403 15.1 106.355 15.064C106.043 15.388 105.617 15.676 105.077 15.928C104.549 16.168 103.853 16.288 102.989 16.288C102.161 16.288 101.477 16.144 100.937 15.856C100.409 15.568 100.013 15.19 99.749 14.722C99.485 14.242 99.353 13.726 99.353 13.174C99.353 12.526 99.557 11.932 99.965 11.392C100.373 10.852 101.081 10.372 102.089 9.952C102.041 9.904 102.011 9.868 101.999 9.844C101.603 9.316 101.333 8.824 101.189 8.368C101.045 7.912 100.973 7.468 100.973 7.036C100.973 6.112 101.297 5.386 101.945 4.858C102.593 4.318 103.463 4.048 104.555 4.048C105.599 4.048 106.403 4.264 106.967 4.696C107.543 5.116 107.831 5.68 107.831 6.388C107.831 6.988 107.615 7.504 107.183 7.936C106.763 8.368 106.091 8.764 105.167 9.124C105.335 9.304 105.521 9.508 105.725 9.736C105.941 9.964 106.187 10.234 106.463 10.546C106.763 10.87 107.033 11.164 107.273 11.428C107.525 11.68 107.753 11.92 107.957 12.148C108.197 11.692 108.383 11.26 108.515 10.852C108.659 10.432 108.785 9.958 108.893 9.43L107.525 9.196V8.35H111.629V9.196L110.423 9.394C110.183 10.078 109.925 10.678 109.649 11.194C109.373 11.71 109.025 12.25 108.605 12.814C108.809 13.03 109.007 13.246 109.199 13.462C109.391 13.666 109.601 13.888 109.829 14.128L111.593 14.542L111.413 16ZM104.213 12.616C103.853 12.16 103.541 11.776 103.277 11.464C103.025 11.14 102.809 10.87 102.629 10.654C102.317 11.134 102.161 11.68 102.161 12.292C102.161 12.796 102.269 13.222 102.485 13.57C102.713 13.918 103.007 14.182 103.367 14.362C103.727 14.542 104.111 14.632 104.519 14.632C104.987 14.632 105.377 14.554 105.689 14.398C105.413 14.098 105.149 13.792 104.897 13.48C104.657 13.168 104.429 12.88 104.213 12.616Z" fill="#23263B"/>
<path d="M124.688 5.326V4.264H128.378V5.326L127.01 5.56L123.77 16H121.61L119.306 8.278L116.984 16H114.824L111.62 5.416L110.666 5.326V4.264H116.534V5.326L115.328 5.452L117.038 12.274L118.964 5.47L117.848 5.326V4.264H123.446V5.326L121.97 5.506L123.824 12.418L125.804 5.506L124.688 5.326Z" fill="#23263B"/>
<path d="M128.166 16V15.082L128.976 14.902C128.988 14.458 128.994 13.996 128.994 13.516C128.994 13.024 128.994 12.592 128.994 12.22V11.356C128.994 10.864 128.988 10.456 128.976 10.132C128.976 9.796 128.964 9.448 128.94 9.088L127.968 8.926V8.188L132.144 6.946L132.468 7.144L132.414 9.826V12.22C132.414 12.592 132.414 13.03 132.414 13.534C132.414 14.026 132.42 14.488 132.432 14.92L133.188 15.082V16H128.166ZM130.668 5.884C130.212 5.884 129.822 5.74 129.498 5.452C129.174 5.152 129.012 4.78 129.012 4.336C129.012 3.88 129.174 3.508 129.498 3.22C129.822 2.932 130.212 2.788 130.668 2.788C131.124 2.788 131.514 2.932 131.838 3.22C132.162 3.508 132.324 3.88 132.324 4.336C132.324 4.78 132.162 5.152 131.838 5.452C131.514 5.74 131.124 5.884 130.668 5.884Z" fill="#23263B"/>
<path d="M133.984 16V15.082L134.794 14.902C134.806 14.446 134.812 13.996 134.812 13.552C134.824 13.108 134.83 12.664 134.83 12.22V4.822L133.858 4.642V3.832L138.016 3.022L138.322 3.22L138.25 5.722V12.22C138.25 12.664 138.25 13.114 138.25 13.57C138.262 14.014 138.274 14.464 138.286 14.92L139.096 15.082V16H133.984Z" fill="#23263B"/>
<path d="M139.996 16V15.082L140.806 14.902C140.818 14.446 140.824 13.996 140.824 13.552C140.836 13.108 140.842 12.664 140.842 12.22V4.822L139.87 4.642V3.832L144.028 3.022L144.334 3.22L144.262 5.722V12.22C144.262 12.664 144.262 13.114 144.262 13.57C144.274 14.014 144.286 14.464 144.298 14.92L145.108 15.082V16H139.996Z" fill="#23263B"/>
<path d="M146.025 16V15.082L146.835 14.902C146.847 14.458 146.853 13.996 146.853 13.516C146.853 13.024 146.853 12.592 146.853 12.22V11.356C146.853 10.864 146.847 10.456 146.835 10.132C146.835 9.796 146.823 9.448 146.799 9.088L145.827 8.926V8.188L150.003 6.946L150.327 7.144L150.273 9.826V12.22C150.273 12.592 150.273 13.03 150.273 13.534C150.273 14.026 150.279 14.488 150.291 14.92L151.047 15.082V16H146.025ZM148.527 5.884C148.071 5.884 147.681 5.74 147.357 5.452C147.033 5.152 146.871 4.78 146.871 4.336C146.871 3.88 147.033 3.508 147.357 3.22C147.681 2.932 148.071 2.788 148.527 2.788C148.983 2.788 149.373 2.932 149.697 3.22C150.021 3.508 150.183 3.88 150.183 4.336C150.183 4.78 150.021 5.152 149.697 5.452C149.373 5.74 148.983 5.884 148.527 5.884Z" fill="#23263B"/>
<path d="M158.809 16.288C158.245 16.288 157.789 16.18 157.441 15.964C157.105 15.736 156.859 15.418 156.703 15.01C156.355 15.394 156.001 15.706 155.641 15.946C155.293 16.174 154.795 16.288 154.147 16.288C153.439 16.288 152.869 16.084 152.437 15.676C152.017 15.268 151.807 14.698 151.807 13.966C151.807 13.498 151.909 13.084 152.113 12.724C152.329 12.352 152.701 12.016 153.229 11.716C153.769 11.404 154.525 11.122 155.497 10.87C155.641 10.834 155.809 10.792 156.001 10.744C156.193 10.684 156.391 10.63 156.595 10.582V9.934C156.595 9.166 156.505 8.638 156.325 8.35C156.157 8.062 155.791 7.918 155.227 7.918C155.179 7.918 155.131 7.918 155.083 7.918C155.047 7.918 155.005 7.918 154.957 7.918V8.53C154.957 9.262 154.807 9.784 154.507 10.096C154.207 10.396 153.865 10.546 153.481 10.546C152.749 10.546 152.293 10.222 152.113 9.574C152.113 8.794 152.479 8.164 153.211 7.684C153.955 7.192 155.053 6.946 156.505 6.946C157.753 6.946 158.629 7.222 159.133 7.774C159.649 8.314 159.907 9.202 159.907 10.438V14.56C159.907 14.764 160.009 14.866 160.213 14.866C160.285 14.866 160.357 14.842 160.429 14.794C160.501 14.734 160.591 14.626 160.699 14.47L161.221 14.758C161.005 15.31 160.705 15.706 160.321 15.946C159.949 16.174 159.445 16.288 158.809 16.288ZM154.903 13.408C154.903 13.852 154.993 14.182 155.173 14.398C155.353 14.614 155.575 14.722 155.839 14.722C155.923 14.722 156.013 14.704 156.109 14.668C156.217 14.62 156.379 14.524 156.595 14.38V11.428C156.415 11.476 156.241 11.542 156.073 11.626C155.821 11.746 155.563 11.95 155.299 12.238C155.035 12.526 154.903 12.916 154.903 13.408Z" fill="#23263B"/>
<path d="M161.492 16V15.082L162.32 14.884C162.332 14.452 162.338 13.996 162.338 13.516C162.338 13.024 162.338 12.592 162.338 12.22V11.104C162.338 10.768 162.338 10.498 162.338 10.294C162.338 10.09 162.332 9.898 162.32 9.718C162.32 9.538 162.308 9.328 162.284 9.088L161.312 8.926V8.188L165.29 6.946L165.614 7.144L165.704 8.386C166.124 7.882 166.544 7.516 166.964 7.288C167.384 7.06 167.858 6.946 168.386 6.946C169.658 6.946 170.486 7.468 170.87 8.512C171.374 7.888 171.836 7.474 172.256 7.27C172.676 7.054 173.132 6.946 173.624 6.946C174.608 6.946 175.31 7.216 175.73 7.756C176.162 8.296 176.378 9.094 176.378 10.15V12.22C176.378 12.604 176.378 13.042 176.378 13.534C176.378 14.026 176.384 14.488 176.396 14.92L177.152 15.082V16H172.328V15.082L173.012 14.902C173.024 14.47 173.03 14.008 173.03 13.516C173.03 13.024 173.03 12.592 173.03 12.22V10.402C173.03 9.79 172.97 9.382 172.85 9.178C172.73 8.974 172.514 8.872 172.202 8.872C171.818 8.872 171.434 9.016 171.05 9.304C171.062 9.4 171.068 9.502 171.068 9.61C171.08 9.718 171.086 9.832 171.086 9.952V12.22C171.086 12.604 171.086 13.042 171.086 13.534C171.086 14.026 171.092 14.494 171.104 14.938L171.788 15.082V16H166.946V15.082L167.72 14.884C167.732 14.464 167.738 14.008 167.738 13.516C167.738 13.024 167.738 12.592 167.738 12.22V10.402C167.738 9.85 167.678 9.46 167.558 9.232C167.45 8.992 167.222 8.872 166.874 8.872C166.694 8.872 166.508 8.914 166.316 8.998C166.124 9.082 165.938 9.19 165.758 9.322V12.22C165.758 12.592 165.758 13.03 165.758 13.534C165.758 14.026 165.764 14.494 165.776 14.938L166.46 15.082V16H161.492Z" fill="#23263B"/>
<path d="M181.169 16.288C179.921 16.288 178.817 15.994 177.857 15.406L177.947 13.102H179.585L179.873 14.974C180.077 15.058 180.287 15.124 180.503 15.172C180.719 15.208 180.941 15.226 181.169 15.226C181.625 15.226 181.979 15.154 182.231 15.01C182.483 14.866 182.609 14.626 182.609 14.29C182.609 14.05 182.513 13.834 182.321 13.642C182.141 13.45 181.751 13.276 181.151 13.12L180.125 12.85C179.417 12.658 178.877 12.322 178.505 11.842C178.133 11.35 177.947 10.756 177.947 10.06C177.947 9.16 178.289 8.416 178.973 7.828C179.669 7.24 180.665 6.946 181.961 6.946C182.513 6.946 183.023 7.006 183.491 7.126C183.971 7.246 184.457 7.426 184.949 7.666L184.805 9.7H183.149L182.753 8.098C182.633 8.074 182.501 8.056 182.357 8.044C182.225 8.02 182.063 8.008 181.871 8.008C181.535 8.008 181.247 8.086 181.007 8.242C180.779 8.386 180.665 8.614 180.665 8.926C180.665 9.118 180.749 9.304 180.917 9.484C181.085 9.664 181.481 9.838 182.105 10.006L183.113 10.276C183.953 10.504 184.553 10.858 184.913 11.338C185.285 11.818 185.471 12.412 185.471 13.12C185.471 14.176 185.081 14.968 184.301 15.496C183.533 16.024 182.489 16.288 181.169 16.288Z" fill="#23263B"/>
</g>
<g id="FASHION">
<path d="M93.5054 34H95.0174V28.708H99.5174V27.448H95.0174V23.452H100.327V22.192H93.5054V34Z" fill="#23263B"/>
<path d="M107.62 29.194L108.196 27.394C108.61 26.08 108.988 24.784 109.366 23.416H109.438C109.816 24.784 110.194 26.08 110.608 27.394L111.166 29.194H107.62ZM112.678 34H114.262L110.266 22.192H108.574L104.578 34H106.108L107.242 30.4H111.544L112.678 34Z" fill="#23263B"/>
<path d="M119.484 32.47C120.51 33.532 121.95 34.216 123.606 34.216C126.09 34.216 127.638 32.722 127.638 30.85C127.638 29.104 126.576 28.294 125.208 27.7L123.516 26.98C122.598 26.584 121.554 26.152 121.554 25.018C121.554 23.956 122.436 23.29 123.768 23.29C124.848 23.29 125.73 23.722 126.45 24.406L127.242 23.434C126.414 22.57 125.172 21.976 123.768 21.976C121.626 21.976 120.042 23.308 120.042 25.108C120.042 26.836 121.338 27.682 122.436 28.15L124.128 28.888C125.244 29.392 126.108 29.77 126.108 30.976C126.108 32.128 125.19 32.902 123.642 32.902C122.4 32.902 121.23 32.308 120.384 31.426L119.484 32.47Z" fill="#23263B"/>
<path d="M134.357 34H135.869V28.438H141.359V34H142.853V22.192H141.359V27.142H135.869V22.192H134.357V34Z" fill="#23263B"/>
<path d="M150.511 34H152.023V22.192H150.511V34Z" fill="#23263B"/>
<path d="M164.026 34.216C166.978 34.216 169.066 31.84 169.066 28.042C169.066 24.28 166.978 21.976 164.026 21.976C161.056 21.976 158.968 24.262 158.968 28.042C158.968 31.84 161.056 34.216 164.026 34.216ZM164.026 32.902C161.902 32.902 160.516 30.994 160.516 28.042C160.516 25.108 161.902 23.29 164.026 23.29C166.132 23.29 167.518 25.108 167.518 28.042C167.518 30.994 166.132 32.902 164.026 32.902Z" fill="#23263B"/>
<path d="M176.017 34H177.439V27.826C177.439 26.584 177.331 25.324 177.259 24.136H177.331L178.609 26.566L182.875 34H184.423V22.192H183.001V28.294C183.001 29.536 183.127 30.868 183.199 32.056H183.127L181.849 29.608L177.565 22.192H176.017V34Z" fill="#23263B"/>
</g>
<path id="Subtract" fill-rule="evenodd" clip-rule="evenodd" d="M1.76751 6.02098C0.25712 6.70207 -0.415161 8.47862 0.26593 9.98901L2.31873 14.5413L2.89395 13.8487C3.26728 14.1474 3.66728 14.3927 4.09395 14.5847C4.53128 14.766 4.94195 14.8567 5.32595 14.8567C5.74195 14.8567 6.04062 14.7927 6.22195 14.6647C6.41395 14.5367 6.50995 14.3554 6.50995 14.1207C6.50995 13.9927 6.47795 13.886 6.41395 13.8007C6.34995 13.7154 6.25395 13.6354 6.12595 13.5607C6.00862 13.486 5.86462 13.4167 5.69395 13.3527C5.52328 13.278 5.32595 13.198 5.10195 13.1127L3.80595 12.5687C3.52862 12.462 3.26195 12.3234 3.00595 12.1527C2.74995 11.9714 2.52595 11.7634 2.33395 11.5287C2.14195 11.2834 1.98728 11.006 1.86995 10.6967C1.76328 10.3874 1.70995 10.046 1.70995 9.67271C1.70995 9.22471 1.80595 8.80871 1.99795 8.42471C2.18995 8.03004 2.45662 7.68871 2.79795 7.40071C3.13928 7.10204 3.54462 6.86738 4.01395 6.69671C4.49395 6.52604 5.01662 6.44071 5.58195 6.44071C6.17928 6.44071 6.78195 6.55271 7.38995 6.77671C8.00862 7.00071 8.55795 7.35271 9.03795 7.83271L7.66195 9.56071C7.30995 9.31538 6.96862 9.12871 6.63795 9.00071C6.31795 8.87271 5.96595 8.80871 5.58195 8.80871C5.24062 8.80871 4.97395 8.86738 4.78195 8.98471C4.58995 9.10204 4.49395 9.27804 4.49395 9.51271C4.49395 9.75804 4.62728 9.95004 4.89395 10.0887C5.17128 10.2167 5.54995 10.3714 6.02995 10.5527L7.29395 11.0487C7.94462 11.3047 8.44595 11.662 8.79795 12.1207C9.14995 12.5794 9.32595 13.1714 9.32595 13.8967C9.32595 14.334 9.23528 14.7554 9.05395 15.1607C8.87262 15.566 8.60595 15.9234 8.25395 16.2327C7.91262 16.5314 7.49128 16.7714 6.98995 16.9527C6.48862 17.134 5.91262 17.2247 5.26195 17.2247C4.65788 17.2247 4.03601 17.1268 3.39634 16.931L4.78775 20.0166C5.46884 21.527 7.24539 22.1993 8.75578 21.5182L18.7028 17.0327H17.6532L16.8532 12.9047C16.7679 12.4994 16.6932 12.0887 16.6292 11.6727C16.5759 11.2567 16.5225 10.8567 16.4692 10.4727H16.4052C16.3519 10.8567 16.2932 11.2567 16.2292 11.6727C16.1759 12.0887 16.1065 12.4994 16.0212 12.9047L15.2532 17.0327H11.8292L10.0052 6.63271H12.8212L13.3972 11.1767C13.4505 11.7207 13.5092 12.2647 13.5732 12.8087C13.6372 13.3527 13.6959 13.8967 13.7492 14.4407H13.8132L14.1012 12.8087L14.3892 11.1767L15.3812 6.63271H17.6852L18.6772 11.1767C18.7732 11.6994 18.8692 12.238 18.9652 12.7927C19.0612 13.3367 19.1572 13.886 19.2532 14.4407H19.3172C19.3705 13.886 19.4292 13.3367 19.4932 12.7927C19.5572 12.2487 19.6159 11.71 19.6692 11.1767L20.2452 6.63271H20.6919L18.498 1.76751C17.8169 0.257124 16.0403 -0.415157 14.5299 0.265935L1.76751 6.02098ZM22.2829 10.1611L21.3387 15.8441L21.5182 15.7632C23.0286 15.0821 23.7009 13.3055 23.0198 11.7951L22.2829 10.1611Z" fill="#003DFF"/>
</g>
</svg>
