<svg width="132" height="25" viewBox="0 0 132 25" fill="none" xmlns="http://www.w3.org/2000/svg">
<g id="Property 1=Small">
<g id="Spencer&#38;Williams">
<path d="M25.2143 11.6068C24.7386 11.6068 24.2375 11.5558 23.7108 11.4536C23.1927 11.3514 22.734 11.1811 22.3348 10.9426L22.4113 9.00112H23.7618L24.0166 10.6105C24.3988 10.7383 24.8023 10.8021 25.227 10.8021C25.6262 10.8021 25.9192 10.6957 26.1061 10.4828C26.293 10.2614 26.3864 10.0059 26.3864 9.71642C26.3864 9.40986 26.3142 9.17143 26.1698 9.00112C26.0339 8.83081 25.8046 8.66901 25.4818 8.51574L24.9212 8.2475C24.1313 7.87282 23.5282 7.46408 23.112 7.02127C22.6958 6.57847 22.4877 5.99516 22.4877 5.27135C22.4877 4.48792 22.7765 3.87481 23.3541 3.43201C23.9402 2.9892 24.7471 2.7678 25.7748 2.7678C26.242 2.7678 26.7007 2.82315 27.1508 2.93385C27.601 3.04455 27.9875 3.20209 28.3103 3.40646L28.1956 5.2458H26.8705L26.6412 3.72579C26.3864 3.62361 26.1231 3.57251 25.8513 3.57251C25.537 3.57251 25.2652 3.6747 25.0359 3.87907C24.815 4.07492 24.7046 4.32187 24.7046 4.61991C24.7046 4.93499 24.7938 5.18193 24.9722 5.36076C25.1505 5.53958 25.4096 5.71415 25.7494 5.88446L26.3864 6.19102C26.9215 6.44648 27.3547 6.7062 27.686 6.97018C28.0257 7.22564 28.272 7.51517 28.4249 7.83876C28.5863 8.15383 28.667 8.53277 28.667 8.97557C28.667 9.47798 28.5396 9.9293 28.2848 10.3295C28.0385 10.7212 27.6605 11.0321 27.1508 11.262C26.6412 11.4919 25.9957 11.6068 25.2143 11.6068Z" fill="#23263B"/>
<path d="M29.2017 14.187V13.5228L29.775 13.3951C29.7835 12.9693 29.7878 12.5776 29.7878 12.22C29.7963 11.8708 29.8005 11.5472 29.8005 11.2492V7.87708C29.8005 7.63864 29.7963 7.44705 29.7878 7.30228C29.7878 7.15752 29.7835 7.02127 29.775 6.89354C29.775 6.76581 29.7708 6.61679 29.7623 6.44648L29.0743 6.33152V5.80782L31.8645 4.92647L32.0811 5.04143L32.1321 5.71841C32.6502 5.19045 33.2703 4.92647 33.9922 4.92647C34.4594 4.92647 34.8841 5.04994 35.2663 5.29689C35.6485 5.53533 35.9501 5.89723 36.1709 6.38261C36.4002 6.86799 36.5149 7.47685 36.5149 8.20918C36.5149 8.90745 36.3833 9.50779 36.1199 10.0102C35.8566 10.5041 35.5126 10.8873 35.0879 11.1598C34.6717 11.4238 34.2258 11.5558 33.7502 11.5558C33.4104 11.5558 33.1131 11.5004 32.8583 11.3897C32.6035 11.2875 32.3784 11.1385 32.183 10.9426V11.2492C32.183 11.5387 32.183 11.8538 32.183 12.1944C32.1915 12.5435 32.2 12.9225 32.2085 13.3312L32.8838 13.5228V14.187H29.2017ZM32.8201 6.19102C32.7097 6.19102 32.6035 6.20805 32.5016 6.24211C32.4081 6.27617 32.3147 6.32301 32.2213 6.38261V10.1507C32.3911 10.2699 32.5908 10.3295 32.8201 10.3295C33.1598 10.3295 33.4316 10.1592 33.6355 9.8186C33.8393 9.46947 33.9413 8.93299 33.9413 8.20918C33.9413 7.47685 33.8393 6.95741 33.6355 6.65085C33.4316 6.34429 33.1598 6.19102 32.8201 6.19102Z" fill="#23263B"/>
<path d="M40.4749 5.61622C40.2795 5.61622 40.1139 5.76099 39.978 6.05051C39.8421 6.34004 39.7657 6.88077 39.7487 7.67271H40.3475C40.6533 7.67271 40.8571 7.6131 40.959 7.49388C41.0695 7.36615 41.1247 7.14049 41.1247 6.8169C41.1247 6.3741 41.0567 6.06328 40.9208 5.88446C40.7934 5.70563 40.6448 5.61622 40.4749 5.61622ZM40.5131 11.5558C39.8761 11.5558 39.307 11.4238 38.8059 11.1598C38.3132 10.8958 37.9225 10.5169 37.6337 10.023C37.3449 9.52056 37.2005 8.92022 37.2005 8.22195C37.2005 7.66845 37.2982 7.18733 37.4936 6.77858C37.6889 6.36984 37.9522 6.02922 38.2835 5.75673C38.6147 5.47572 38.9842 5.26709 39.3919 5.13084C39.7996 4.99459 40.2116 4.92647 40.6278 4.92647C41.2393 4.92647 41.7447 5.0542 42.1439 5.30967C42.5516 5.55661 42.8574 5.89298 43.0613 6.31875C43.2651 6.73601 43.367 7.20436 43.367 7.7238C43.367 7.86005 43.3628 7.97926 43.3543 8.08145C43.3458 8.17512 43.3288 8.28156 43.3033 8.40078H39.7614C39.8294 9.02241 40.012 9.47372 40.3093 9.75473C40.615 10.0357 40.9548 10.1763 41.3285 10.1763C41.6513 10.1763 41.9273 10.1209 42.1567 10.0102C42.3945 9.89098 42.6026 9.74622 42.781 9.57591L43.2779 10.0613C43.0061 10.5807 42.6323 10.9597 42.1567 11.1981C41.6895 11.4365 41.1417 11.5558 40.5131 11.5558Z" fill="#23263B"/>
<path d="M43.9196 11.3514V10.7L44.5057 10.5594C44.5141 10.2529 44.5184 9.9293 44.5184 9.58868C44.5184 9.23955 44.5184 8.93299 44.5184 8.66901V7.87708C44.5184 7.63864 44.5141 7.44705 44.5057 7.30228C44.5057 7.15752 44.5014 7.02127 44.4929 6.89354C44.4929 6.76581 44.4887 6.61679 44.4802 6.44648L43.7922 6.33152V5.80782L46.6079 4.92647L46.8372 5.06698L46.9009 5.94833C47.2492 5.53958 47.5677 5.26709 47.8565 5.13084C48.1538 4.99459 48.4808 4.92647 48.8375 4.92647C49.3896 4.92647 49.8483 5.10955 50.2135 5.47572C50.5787 5.83337 50.7614 6.36133 50.7614 7.05959V8.66901C50.7614 8.94151 50.7614 9.25232 50.7614 9.60146C50.7614 9.95059 50.7656 10.2784 50.7741 10.585L51.3092 10.7V11.3514H47.78V10.7L48.3279 10.5722C48.3364 10.2657 48.3406 9.93782 48.3406 9.58868C48.3406 9.23955 48.3406 8.93299 48.3406 8.66901V7.22564C48.3406 6.88503 48.2939 6.64659 48.2005 6.51035C48.1155 6.36558 47.9711 6.2932 47.7673 6.2932C47.5295 6.2932 47.2534 6.4039 46.9391 6.6253V8.66901C46.9391 8.93299 46.9391 9.24381 46.9391 9.60146C46.9391 9.95059 46.9434 10.2827 46.9519 10.5978L47.436 10.7V11.3514H43.9196Z" fill="#23263B"/>
<path d="M55.1075 11.5558C54.5299 11.5558 53.9905 11.4365 53.4894 11.1981C52.9882 10.9512 52.5805 10.585 52.2663 10.0996C51.9605 9.61423 51.8076 9.00112 51.8076 8.26027C51.8076 7.55349 51.969 6.95315 52.2917 6.45925C52.6145 5.95684 53.0519 5.5779 53.604 5.32244C54.1561 5.05846 54.7719 4.92647 55.4515 4.92647C55.9271 4.92647 56.3433 5.01588 56.7001 5.19471C57.0568 5.37353 57.3371 5.61196 57.5409 5.91001C57.7533 6.19953 57.868 6.51886 57.8849 6.868C57.7236 7.36189 57.4008 7.60884 56.9166 7.60884C56.6533 7.60884 56.4113 7.50665 56.1904 7.30228C55.9696 7.09791 55.8464 6.71472 55.8209 6.1527L55.7955 5.61622H55.7445C55.5491 5.61622 55.341 5.69286 55.1202 5.84614C54.9079 5.9909 54.7252 6.23785 54.5723 6.58698C54.428 6.9276 54.3558 7.3917 54.3558 7.97926C54.3558 8.68605 54.5044 9.23103 54.8017 9.61423C55.1075 9.98891 55.5152 10.1763 56.0248 10.1763C56.3051 10.1763 56.5472 10.1209 56.751 10.0102C56.9549 9.89098 57.146 9.74622 57.3243 9.57591L57.8212 10.0613C57.5494 10.5807 57.18 10.9597 56.7128 11.1981C56.2456 11.4365 55.7105 11.5558 55.1075 11.5558Z" fill="#23263B"/>
<path d="M61.6265 5.61622C61.4312 5.61622 61.2656 5.76099 61.1297 6.05051C60.9938 6.34004 60.9173 6.88077 60.9003 7.67271H61.4991C61.8049 7.67271 62.0088 7.6131 62.1107 7.49388C62.2211 7.36615 62.2763 7.14049 62.2763 6.8169C62.2763 6.3741 62.2084 6.06328 62.0725 5.88446C61.9451 5.70563 61.7964 5.61622 61.6265 5.61622ZM61.6648 11.5558C61.0277 11.5558 60.4586 11.4238 59.9575 11.1598C59.4649 10.8958 59.0741 10.5169 58.7854 10.023C58.4966 9.52056 58.3522 8.92022 58.3522 8.22195C58.3522 7.66845 58.4498 7.18733 58.6452 6.77858C58.8406 6.36984 59.1039 6.02922 59.4351 5.75673C59.7664 5.47572 60.1359 5.26709 60.5436 5.13084C60.9513 4.99459 61.3632 4.92647 61.7794 4.92647C62.391 4.92647 62.8964 5.0542 63.2956 5.30967C63.7033 5.55661 64.0091 5.89298 64.2129 6.31875C64.4168 6.73601 64.5187 7.20436 64.5187 7.7238C64.5187 7.86005 64.5145 7.97926 64.506 8.08145C64.4975 8.17512 64.4805 8.28156 64.455 8.40078H60.9131C60.981 9.02241 61.1636 9.47372 61.4609 9.75473C61.7667 10.0357 62.1064 10.1763 62.4802 10.1763C62.8029 10.1763 63.079 10.1209 63.3083 10.0102C63.5462 9.89098 63.7542 9.74622 63.9326 9.57591L64.4295 10.0613C64.1577 10.5807 63.784 10.9597 63.3083 11.1981C62.8412 11.4365 62.2933 11.5558 61.6648 11.5558Z" fill="#23263B"/>
<path d="M65.0457 11.3514V10.7L65.6573 10.5594C65.6658 10.2529 65.67 9.9293 65.67 9.58868C65.67 9.23955 65.67 8.93299 65.67 8.66901V7.8643C65.67 7.62587 65.6658 7.43427 65.6573 7.28951C65.6573 7.14475 65.6531 7.01276 65.6446 6.89354C65.6446 6.76581 65.6403 6.61679 65.6318 6.44648L64.9438 6.33152V5.80782L67.7595 4.92647L67.9889 5.06698L68.0908 6.54867C68.2607 5.99516 68.5027 5.58642 68.817 5.32244C69.1398 5.05846 69.454 4.92647 69.7598 4.92647C70.0741 4.92647 70.3374 5.02014 70.5498 5.20748C70.7706 5.38631 70.9022 5.67157 70.9447 6.06328C70.9277 6.4039 70.8258 6.67214 70.6389 6.868C70.4521 7.05534 70.2312 7.149 69.9764 7.149C69.5857 7.149 69.229 6.91483 68.9062 6.44648L68.8425 6.35707C68.6896 6.52738 68.5367 6.74878 68.3838 7.02127C68.2394 7.29377 68.1418 7.57478 68.0908 7.8643V8.66901C68.0908 8.91596 68.0908 9.20549 68.0908 9.53759C68.0908 9.86969 68.095 10.1848 68.1035 10.4828L69.0973 10.7V11.3514H65.0457Z" fill="#23263B"/>
<path d="M73.6469 5.51404C73.6893 5.58216 73.7445 5.6588 73.8125 5.74395C73.8804 5.82059 73.9696 5.93129 74.08 6.07606C74.3349 5.72692 74.5047 5.39482 74.5897 5.07975C74.6746 4.76468 74.7171 4.49644 74.7171 4.27504C74.7171 4.01957 74.6534 3.8152 74.526 3.66192C74.4071 3.50865 74.2244 3.43201 73.9781 3.43201C73.7488 3.43201 73.5662 3.51716 73.4303 3.68747C73.3029 3.84927 73.2391 4.05789 73.2391 4.31336C73.2391 4.47515 73.2689 4.65398 73.3283 4.84983C73.3878 5.04569 73.494 5.26709 73.6469 5.51404ZM78.8578 11.3514C78.5181 11.428 78.2548 11.4791 78.0679 11.5047C77.881 11.5387 77.6899 11.5558 77.4946 11.5558C77.1038 11.5558 76.7471 11.5047 76.4243 11.4025C76.1101 11.3003 75.7915 11.1172 75.4688 10.8532C75.4348 10.8277 75.4008 10.8021 75.3669 10.7766C75.3414 10.7425 75.3116 10.7127 75.2777 10.6872C75.0568 10.9171 74.7553 11.1215 74.3731 11.3003C73.9993 11.4706 73.5067 11.5558 72.8951 11.5558C72.3091 11.5558 71.8249 11.4536 71.4427 11.2492C71.069 11.0448 70.7887 10.7766 70.6018 10.4445C70.4149 10.1039 70.3215 9.7377 70.3215 9.34599C70.3215 8.88616 70.4659 8.46464 70.7547 8.08145C71.0435 7.69825 71.5446 7.35763 72.2581 7.05959C72.2241 7.02553 72.2029 6.99998 72.1944 6.98295C71.9141 6.60827 71.723 6.25914 71.6211 5.93555C71.5191 5.61197 71.4682 5.29689 71.4682 4.99034C71.4682 4.33465 71.6975 3.81946 72.1562 3.44478C72.6148 3.06159 73.2307 2.86999 74.0036 2.86999C74.7426 2.86999 75.3116 3.02327 75.7109 3.32982C76.1186 3.62786 76.3224 4.02809 76.3224 4.5305C76.3224 4.95627 76.1695 5.32244 75.8637 5.629C75.5665 5.93555 75.0908 6.21656 74.4368 6.47203C74.5557 6.59976 74.6873 6.74452 74.8317 6.90631C74.9846 7.06811 75.1588 7.25971 75.3541 7.48111C75.5665 7.71103 75.7576 7.91965 75.9274 8.10699C76.1058 8.28582 76.2672 8.45613 76.4116 8.61792C76.5815 8.29433 76.7131 7.98778 76.8066 7.69825C76.9085 7.40021 76.9977 7.06385 77.0741 6.68917L76.1058 6.52312V5.92278H79.0107V6.52312L78.1571 6.66362C77.9872 7.14901 77.8046 7.57478 77.6092 7.94094C77.4139 8.30711 77.1676 8.6903 76.8703 9.09053C77.0147 9.24381 77.1548 9.39709 77.2907 9.55036C77.4266 9.69513 77.5753 9.85266 77.7366 10.023L78.9852 10.3168L78.8578 11.3514ZM73.7615 8.95003C73.5067 8.62644 73.2859 8.35394 73.099 8.13254C72.9206 7.90262 72.7677 7.71103 72.6403 7.55775C72.4195 7.89837 72.3091 8.28582 72.3091 8.72011C72.3091 9.07776 72.3855 9.38005 72.5384 9.627C72.6998 9.87395 72.9079 10.0613 73.1627 10.189C73.4175 10.3168 73.6893 10.3806 73.9781 10.3806C74.3094 10.3806 74.5854 10.3253 74.8063 10.2146C74.6109 10.0017 74.424 9.78454 74.2457 9.56314C74.0758 9.34173 73.9144 9.13737 73.7615 8.95003Z" fill="#23263B"/>
<path d="M88.2542 3.77688V3.02327H90.8661V3.77688L89.8978 3.94294L87.6045 11.3514H86.0756L84.4447 5.87169L82.8012 11.3514H81.2723L79.0044 3.84075L78.3292 3.77688V3.02327H82.4827V3.77688L81.629 3.8663L82.8394 8.70733L84.2027 3.87907L83.4127 3.77688V3.02327H87.3751V3.77688L86.3304 3.90462L87.6427 8.80952L89.0442 3.90462L88.2542 3.77688Z" fill="#23263B"/>
<path d="M90.716 11.3514V10.7L91.2893 10.5722C91.2978 10.2571 91.3021 9.9293 91.3021 9.58868C91.3021 9.23955 91.3021 8.93299 91.3021 8.66901V8.0559C91.3021 7.70677 91.2978 7.41724 91.2893 7.18733C91.2893 6.94889 91.2808 6.70194 91.2638 6.44648L90.5758 6.33152V5.80782L93.5317 4.92647L93.761 5.06698L93.7228 6.97018V8.66901C93.7228 8.93299 93.7228 9.24381 93.7228 9.60146C93.7228 9.95059 93.7271 10.2784 93.7355 10.585L94.2707 10.7V11.3514H90.716ZM92.4869 4.17285C92.1642 4.17285 91.8881 4.07067 91.6588 3.8663C91.4295 3.65341 91.3148 3.38943 91.3148 3.07436C91.3148 2.75077 91.4295 2.48679 91.6588 2.28242C91.8881 2.07805 92.1642 1.97586 92.4869 1.97586C92.8097 1.97586 93.0858 2.07805 93.3151 2.28242C93.5444 2.48679 93.6591 2.75077 93.6591 3.07436C93.6591 3.38943 93.5444 3.65341 93.3151 3.8663C93.0858 4.07067 92.8097 4.17285 92.4869 4.17285Z" fill="#23263B"/>
<path d="M94.834 11.3514V10.7L95.4074 10.5722C95.4159 10.2486 95.4201 9.9293 95.4201 9.61423C95.4286 9.29916 95.4329 8.98409 95.4329 8.66901V3.41923L94.7449 3.2915V2.71671L97.688 2.14192L97.9046 2.28242L97.8536 4.05789V8.66901C97.8536 8.98409 97.8536 9.30342 97.8536 9.627C97.8621 9.94207 97.8706 10.2614 97.8791 10.585L98.4524 10.7V11.3514H94.834Z" fill="#23263B"/>
<path d="M99.0893 11.3514V10.7L99.6626 10.5722C99.6711 10.2486 99.6753 9.9293 99.6753 9.61423C99.6838 9.29916 99.6881 8.98409 99.6881 8.66901V3.41923L99.0001 3.2915V2.71671L101.943 2.14192L102.16 2.28242L102.109 4.05789V8.66901C102.109 8.98409 102.109 9.30342 102.109 9.627C102.117 9.94207 102.126 10.2614 102.134 10.585L102.708 10.7V11.3514H99.0893Z" fill="#23263B"/>
<path d="M103.357 11.3514V10.7L103.931 10.5722C103.939 10.2571 103.943 9.9293 103.943 9.58868C103.943 9.23955 103.943 8.93299 103.943 8.66901V8.0559C103.943 7.70677 103.939 7.41724 103.931 7.18733C103.931 6.94889 103.922 6.70194 103.905 6.44648L103.217 6.33152V5.80782L106.173 4.92647L106.402 5.06698L106.364 6.97018V8.66901C106.364 8.93299 106.364 9.24381 106.364 9.60146C106.364 9.95059 106.368 10.2784 106.377 10.585L106.912 10.7V11.3514H103.357ZM105.128 4.17285C104.805 4.17285 104.529 4.07067 104.3 3.8663C104.071 3.65341 103.956 3.38943 103.956 3.07436C103.956 2.75077 104.071 2.48679 104.3 2.28242C104.529 2.07805 104.805 1.97586 105.128 1.97586C105.451 1.97586 105.727 2.07805 105.956 2.28242C106.186 2.48679 106.3 2.75077 106.3 3.07436C106.3 3.38943 106.186 3.65341 105.956 3.8663C105.727 4.07067 105.451 4.17285 105.128 4.17285Z" fill="#23263B"/>
<path d="M112.406 11.5558C112.007 11.5558 111.684 11.4791 111.438 11.3258C111.2 11.164 111.026 10.9384 110.915 10.6489C110.669 10.9214 110.418 11.1428 110.164 11.3131C109.917 11.4749 109.565 11.5558 109.106 11.5558C108.605 11.5558 108.201 11.411 107.896 11.1215C107.598 10.8319 107.45 10.4275 107.45 9.90801C107.45 9.57591 107.522 9.28213 107.666 9.02666C107.819 8.76268 108.083 8.52425 108.456 8.31136C108.839 8.08996 109.374 7.88985 110.062 7.71103C110.164 7.68548 110.282 7.65567 110.418 7.62161C110.554 7.57904 110.694 7.54072 110.839 7.50665V7.04682C110.839 6.50183 110.775 6.12715 110.648 5.92278C110.529 5.71841 110.27 5.61622 109.871 5.61622C109.837 5.61622 109.803 5.61622 109.769 5.61622C109.743 5.61622 109.713 5.61622 109.679 5.61622V6.05051C109.679 6.56995 109.573 6.94038 109.361 7.16178C109.149 7.37466 108.906 7.48111 108.635 7.48111C108.117 7.48111 107.794 7.25119 107.666 6.79136C107.666 6.23785 107.925 5.79079 108.444 5.45017C108.97 5.10104 109.747 4.92647 110.775 4.92647C111.658 4.92647 112.279 5.12233 112.635 5.51404C113.001 5.89723 113.183 6.52738 113.183 7.40447V10.3295C113.183 10.4743 113.255 10.5467 113.4 10.5467C113.451 10.5467 113.502 10.5296 113.553 10.4956C113.604 10.453 113.667 10.3764 113.744 10.2657L114.113 10.47C113.96 10.8617 113.748 11.1428 113.476 11.3131C113.213 11.4749 112.856 11.5558 112.406 11.5558ZM109.641 9.51205C109.641 9.82712 109.705 10.0613 109.832 10.2146C109.96 10.3678 110.117 10.4445 110.304 10.4445C110.363 10.4445 110.427 10.4317 110.495 10.4062C110.571 10.3721 110.686 10.304 110.839 10.2018V8.10699C110.711 8.14106 110.588 8.18789 110.469 8.2475C110.291 8.33265 110.108 8.47742 109.921 8.68179C109.735 8.88616 109.641 9.16291 109.641 9.51205Z" fill="#23263B"/>
<path d="M114.305 11.3514V10.7L114.891 10.5594C114.899 10.2529 114.904 9.9293 114.904 9.58868C114.904 9.23955 114.904 8.93299 114.904 8.66901V7.87708C114.904 7.63864 114.904 7.44705 114.904 7.30228C114.904 7.15752 114.899 7.02127 114.891 6.89354C114.891 6.76581 114.882 6.61679 114.865 6.44648L114.177 6.33152V5.80782L116.993 4.92647L117.222 5.06698L117.286 5.94833C117.583 5.59068 117.881 5.33095 118.178 5.16916C118.475 5.00737 118.811 4.92647 119.185 4.92647C120.085 4.92647 120.671 5.29689 120.943 6.03774C121.299 5.59493 121.626 5.30115 121.924 5.15639C122.221 5.00311 122.544 4.92647 122.892 4.92647C123.589 4.92647 124.085 5.11807 124.383 5.50126C124.689 5.88446 124.841 6.45074 124.841 7.2001V8.66901C124.841 8.94151 124.841 9.25232 124.841 9.60146C124.841 9.95059 124.846 10.2784 124.854 10.585L125.389 10.7V11.3514H121.975V10.7L122.459 10.5722C122.467 10.2657 122.472 9.93782 122.472 9.58868C122.472 9.23955 122.472 8.93299 122.472 8.66901V7.37892C122.472 6.94463 122.429 6.65511 122.344 6.51035C122.259 6.36558 122.106 6.2932 121.886 6.2932C121.614 6.2932 121.342 6.39539 121.07 6.59976C121.079 6.66788 121.083 6.74026 121.083 6.8169C121.091 6.89354 121.096 6.97444 121.096 7.05959V8.66901C121.096 8.94151 121.096 9.25232 121.096 9.60146C121.096 9.95059 121.1 10.2827 121.108 10.5978L121.593 10.7V11.3514H118.165V10.7L118.713 10.5594C118.722 10.2614 118.726 9.93782 118.726 9.58868C118.726 9.23955 118.726 8.93299 118.726 8.66901V7.37892C118.726 6.98721 118.683 6.71046 118.598 6.54867C118.522 6.37836 118.361 6.2932 118.114 6.2932C117.987 6.2932 117.855 6.32301 117.719 6.38261C117.583 6.44222 117.452 6.51886 117.324 6.61253V8.66901C117.324 8.93299 117.324 9.24381 117.324 9.60146C117.324 9.95059 117.329 10.2827 117.337 10.5978L117.821 10.7V11.3514H114.305Z" fill="#23263B"/>
<path d="M128.232 11.5558C127.349 11.5558 126.568 11.3471 125.888 10.9299L125.952 9.2949H127.111L127.315 10.6233C127.46 10.6829 127.608 10.7298 127.761 10.7638C127.914 10.7894 128.071 10.8021 128.232 10.8021C128.555 10.8021 128.806 10.751 128.984 10.6489C129.163 10.5467 129.252 10.3764 129.252 10.1379C129.252 9.96762 129.184 9.81434 129.048 9.6781C128.92 9.54185 128.644 9.41838 128.22 9.30767L127.493 9.11608C126.992 8.97983 126.61 8.7414 126.347 8.40078C126.084 8.05164 125.952 7.63013 125.952 7.13623C125.952 6.49757 126.194 5.96961 126.678 5.55236C127.171 5.1351 127.876 4.92647 128.793 4.92647C129.184 4.92647 129.545 4.96905 129.876 5.0542C130.216 5.13936 130.56 5.26709 130.908 5.4374L130.806 6.88077H129.634L129.354 5.74395C129.269 5.72692 129.175 5.71415 129.073 5.70564C128.98 5.6886 128.865 5.68009 128.729 5.68009C128.492 5.68009 128.288 5.73544 128.118 5.84614C127.956 5.94833 127.876 6.11012 127.876 6.33152C127.876 6.46777 127.935 6.59976 128.054 6.72749C128.173 6.85522 128.453 6.9787 128.895 7.09791L129.608 7.28951C130.203 7.4513 130.628 7.70251 130.883 8.04313C131.146 8.38375 131.277 8.80526 131.277 9.30767C131.277 10.057 131.001 10.6191 130.449 10.9937C129.906 11.3684 129.167 11.5558 128.232 11.5558Z" fill="#23263B"/>
</g>
<g id="FASHION">
<path d="M66.1824 24.1238H67.2526V20.3684H70.4378V19.4743H67.2526V16.6387H71.0111V15.7445H66.1824V24.1238Z" fill="#23263B"/>
<path d="M76.173 20.7133L76.5807 19.436C76.8738 18.5036 77.1413 17.5839 77.4089 16.6131H77.4598C77.7274 17.5839 77.9949 18.5036 78.288 19.436L78.683 20.7133H76.173ZM79.7532 24.1238H80.8744L78.0459 15.7445H76.8483L74.0198 24.1238H75.1028L75.9055 21.5691H78.9505L79.7532 24.1238Z" fill="#23263B"/>
<path d="M84.5703 23.038C85.2965 23.7917 86.3158 24.277 87.4879 24.277C89.2461 24.277 90.3418 23.2169 90.3418 21.8884C90.3418 20.6494 89.5901 20.0747 88.6218 19.6531L87.4242 19.1422C86.7744 18.8612 86.0355 18.5546 86.0355 17.7499C86.0355 16.9963 86.6598 16.5237 87.6026 16.5237C88.367 16.5237 88.9913 16.8303 89.5009 17.3156L90.0615 16.6259C89.4755 16.0128 88.5964 15.5913 87.6026 15.5913C86.0864 15.5913 84.9652 16.5365 84.9652 17.8138C84.9652 19.04 85.8826 19.6404 86.6598 19.9725L87.8574 20.4962C88.6473 20.8538 89.2589 21.1221 89.2589 21.9779C89.2589 22.7953 88.6091 23.3446 87.5134 23.3446C86.6343 23.3446 85.8061 22.9231 85.2073 22.2972L84.5703 23.038Z" fill="#23263B"/>
<path d="M95.0979 24.1238H96.1681V20.1768H100.054V24.1238H101.112V15.7445H100.054V19.2572H96.1681V15.7445H95.0979V24.1238Z" fill="#23263B"/>
<path d="M106.532 24.1238H107.602V15.7445H106.532V24.1238Z" fill="#23263B"/>
<path d="M116.098 24.277C118.188 24.277 119.666 22.591 119.666 19.8958C119.666 17.2262 118.188 15.5913 116.098 15.5913C113.996 15.5913 112.518 17.2135 112.518 19.8958C112.518 22.591 113.996 24.277 116.098 24.277ZM116.098 23.3446C114.595 23.3446 113.614 21.9906 113.614 19.8958C113.614 17.8138 114.595 16.5237 116.098 16.5237C117.589 16.5237 118.57 17.8138 118.57 19.8958C118.57 21.9906 117.589 23.3446 116.098 23.3446Z" fill="#23263B"/>
<path d="M124.586 24.1238H125.592V19.7426C125.592 18.8612 125.516 17.9671 125.465 17.124H125.516L126.42 18.8484L129.44 24.1238H130.536V15.7445H129.529V20.0747C129.529 20.956 129.618 21.9012 129.669 22.7443H129.618L128.714 21.0071L125.682 15.7445H124.586V24.1238Z" fill="#23263B"/>
</g>
<path id="Subtract" fill-rule="evenodd" clip-rule="evenodd" d="M2.0463 3.90854C0.536557 4.59107 -0.136364 6.3693 0.54329 7.88034L1.63856 10.3154L2.04565 9.82397C2.30991 10.0359 2.59303 10.21 2.89504 10.3463C3.20459 10.4749 3.49527 10.5393 3.76707 10.5393C4.06152 10.5393 4.27293 10.4939 4.40128 10.403C4.53718 10.3122 4.60513 10.1835 4.60513 10.017C4.60513 9.92616 4.58248 9.85047 4.53718 9.78991C4.49188 9.72936 4.42393 9.67259 4.33333 9.6196C4.25028 9.56662 4.14835 9.51742 4.02755 9.472C3.90675 9.41902 3.76707 9.36225 3.60852 9.30169L2.69119 8.91566C2.49488 8.83997 2.30613 8.74156 2.12493 8.62046C1.94373 8.49178 1.78518 8.34418 1.64927 8.17765C1.51337 8.00356 1.4039 7.80676 1.32085 7.58725C1.24534 7.36774 1.20759 7.12552 1.20759 6.86059C1.20759 6.54268 1.27555 6.24748 1.41145 5.97499C1.54735 5.69492 1.7361 5.4527 1.9777 5.24833C2.21931 5.03639 2.50621 4.86987 2.83841 4.74876C3.17817 4.62765 3.54812 4.5671 3.94827 4.5671C4.37108 4.5671 4.79766 4.64657 5.22801 4.80553C5.66592 4.96449 6.05475 5.21427 6.3945 5.55489L5.42054 6.78112C5.17139 6.60702 4.92978 6.47456 4.69573 6.38373C4.46923 6.2929 4.22008 6.24748 3.94827 6.24748C3.70667 6.24748 3.51792 6.28911 3.38202 6.37238C3.24612 6.45564 3.17817 6.58053 3.17817 6.74706C3.17817 6.92115 3.27254 7.0574 3.46129 7.1558C3.6576 7.24663 3.92562 7.35638 4.26538 7.48506L5.16006 7.83703C5.62062 8.0187 5.97547 8.27227 6.22462 8.59775C6.47377 8.92323 6.59835 9.34332 6.59835 9.85804C6.59835 10.1684 6.53418 10.4674 6.40582 10.755C6.27747 11.0426 6.08872 11.2962 5.83957 11.5157C5.59797 11.7277 5.29974 11.898 4.94488 12.0266C4.59003 12.1553 4.18233 12.2197 3.72177 12.2197C3.29423 12.2197 2.85409 12.1502 2.40136 12.0113L3.02849 13.4056C3.70814 14.9166 5.48299 15.5882 6.99273 14.9057L13.2356 12.0834H12.4925L11.9263 9.15409C11.8659 8.86646 11.813 8.57504 11.7677 8.27984C11.73 7.98463 11.6922 7.70079 11.6545 7.42829H11.6092C11.5714 7.70079 11.5299 7.98463 11.4846 8.27984C11.4469 8.57504 11.3978 8.86646 11.3374 9.15409L10.7938 12.0834H8.3702L7.07914 4.70334H9.07236L9.48006 7.92787C9.51781 8.3139 9.55934 8.69993 9.60464 9.08597C9.64994 9.472 9.69147 9.85804 9.72922 10.2441H9.77452L9.97837 9.08597L10.1822 7.92787L10.8844 4.70334H12.5152L13.2174 7.92787C13.2853 8.29876 13.3533 8.68101 13.4212 9.07461C13.4892 9.46065 13.5571 9.85047 13.6251 10.2441H13.6704C13.7081 9.85047 13.7496 9.46065 13.7949 9.07461C13.8402 8.68858 13.8818 8.30633 13.9195 7.92787L14.3272 4.70334H14.6435L13.4483 2.04619C12.7686 0.535155 10.9938 -0.136484 9.48404 0.546047L2.0463 3.90854ZM15.7696 7.20704L15.1229 11.1089C16.1293 10.2661 16.4981 8.82658 15.9335 7.57141L15.7696 7.20704Z" fill="#003DFF"/>
</g>
</svg>
